<mxfile host="app.diagrams.net" modified="2023-08-22T01:44:23.210Z" agent="Mozilla/5.0 (Macintosh; Intel Mac OS X 10_15_7) AppleWebKit/537.36 (KHTML, like Gecko) Chrome/115.0.0.0 Safari/537.36 Edg/115.0.1901.203" version="21.6.8" etag="V1oaG2mCZ959Oatil7Px" type="github">
  <diagram name="第 1 页" id="YgQLiieX3jZ_dGLjRVmf">
    <mxGraphModel>
      <root>
        <mxCell id="0" />
        <mxCell id="1" parent="0" />
      </root>
    </mxGraphModel>
  </diagram>
</mxfile>
